<svg width="64" height="64" viewBox="0 0 64 64" fill="none" xmlns="http://www.w3.org/2000/svg">
<g clip-path="url(#clip0_6_7036)">
<rect width="64" height="64" rx="32" fill="#4C6AFF"/>
<path d="M49.6206 58.9508H3.85107V107.741H49.6206V58.9508Z" fill="#1C2444"/>
<path d="M31.5752 50.8214H20.4855C16.9701 50.8214 13.5987 49.425 11.113 46.9392C8.6272 44.4534 7.23071 41.082 7.23071 37.5666V23.5547C7.23071 20.1246 8.59334 16.8349 11.0188 14.4094C13.4443 11.9839 16.734 10.6213 20.1642 10.6213H31.5289C36.0606 10.6213 40.4066 12.4215 43.611 15.6258C46.8154 18.8302 48.6156 23.1763 48.6156 27.7079V33.7811C48.6156 38.3005 46.8203 42.6348 43.6246 45.8304C40.4289 49.0261 36.0946 50.8214 31.5752 50.8214Z" fill="#1C2444"/>
<path d="M45.3801 46.1372L52.1696 23.6909C52.2643 23.3773 52.427 23.0884 52.6462 22.8448C52.8653 22.6013 53.1355 22.409 53.4375 22.2819C53.7394 22.1547 54.0657 22.0957 54.3931 22.109C54.7205 22.1224 55.0409 22.2078 55.3315 22.3592L62.6629 26.172C62.981 26.3374 63.2546 26.5772 63.4602 26.871C63.6658 27.1648 63.7975 27.5039 63.844 27.8595C63.8906 28.2151 63.8506 28.5766 63.7274 28.9134C63.6043 29.2503 63.4016 29.5524 63.1367 29.7941L45.3801 46.1372Z" fill="#FFC1EB"/>
<path d="M43.6399 45.2574L63.0224 33.19C63.3234 33.0029 63.6627 32.886 64.0151 32.8479C64.3675 32.8099 64.724 32.8517 65.0581 32.9702C65.3921 33.0887 65.6952 33.2809 65.9449 33.5325C66.1945 33.7841 66.3843 34.0887 66.5001 34.4237L69.071 41.8668C69.1933 42.2202 69.2297 42.5977 69.1773 42.968C69.1249 43.3383 68.9852 43.6908 68.7697 43.9965C68.5542 44.3022 68.2691 44.5522 67.938 44.726C67.6068 44.8998 67.2391 44.9923 66.8651 44.996L43.6399 45.2574Z" fill="#FFC1EB"/>
<path d="M49.6205 46.8832C48.8373 46.8832 48.0717 46.651 47.4205 46.2159C46.7693 45.7808 46.2618 45.1623 45.9621 44.4388C45.6624 43.7152 45.5839 42.919 45.7367 42.1509C45.8895 41.3827 46.2667 40.6772 46.8205 40.1234C47.3743 39.5696 48.0798 39.1924 48.848 39.0396C49.6161 38.8869 50.4123 38.9653 51.1358 39.265C51.8594 39.5647 52.4779 40.0722 52.913 40.7234C53.3481 41.3746 53.5803 42.1402 53.5803 42.9234C53.5789 43.9732 53.1612 44.9795 52.4189 45.7218C51.6766 46.4641 50.6702 46.8818 49.6205 46.8832ZM49.6205 40.0529C49.0528 40.0529 48.4978 40.2213 48.0257 40.5367C47.5537 40.8521 47.1858 41.3004 46.9685 41.8249C46.7513 42.3494 46.6944 42.9266 46.8052 43.4834C46.9159 44.0402 47.1893 44.5517 47.5908 44.9531C47.9922 45.3546 48.5037 45.628 49.0605 45.7387C49.6173 45.8495 50.1945 45.7926 50.719 45.5754C51.2435 45.3581 51.6918 44.9902 52.0072 44.5181C52.3226 44.0461 52.4909 43.4911 52.4909 42.9234C52.4895 42.1625 52.1866 41.4333 51.6486 40.8953C51.1106 40.3573 50.3813 40.0544 49.6205 40.0529Z" fill="#1C2444"/>
<path d="M42.4552 36.8994C42.6125 35.4127 42.178 33.9238 41.2458 32.7551C40.3135 31.5863 38.9585 30.8317 37.4741 30.6546L37.5095 26.8119C37.5286 25.5931 37.3068 24.3826 36.857 23.2498C36.4072 22.1169 35.7382 21.084 34.8883 20.2103C34.0384 19.3366 33.0243 18.6393 31.9043 18.1584C30.7843 17.6776 29.5804 17.4225 28.3616 17.408L14.1999 17.3072C12.3447 17.305 10.5644 18.0386 9.24927 19.3471C7.93416 20.6555 7.19158 22.4321 7.18437 24.2873L7.03459 41.5836C7.01371 43.0343 7.27903 44.4749 7.81537 45.823C8.35171 47.171 9.14855 48.4001 10.1603 49.44C11.1721 50.4798 12.3789 51.31 13.7118 51.883C15.0447 52.4561 16.4775 52.7607 17.9282 52.7795H18.5818L18.4947 62.3659L37.2072 62.4994L37.3107 51.1455H37.2943L37.3788 42.0139C38.6843 41.876 39.9023 41.2918 40.8272 40.3601C41.752 39.4283 42.327 38.2059 42.4552 36.8994Z" fill="white"/>
<path d="M78.8645 84.8449L56.4209 98.0752L70.3593 126.9C70.3593 126.9 76.6503 138.845 88.4481 133.245C90.8287 132.094 92.9513 130.473 94.6879 128.479C96.4244 126.485 97.7389 124.16 98.5519 121.644L110.679 84.8449C110.679 84.8449 128.496 78.7962 131.137 63.2292C131.239 62.7359 131.248 62.2278 131.162 61.7314C131.027 60.9891 130.689 60.2988 130.184 59.7378C130.365 59.327 130.511 58.9015 130.62 58.466C130.865 57.4774 131.099 56.5133 130.299 55.6963C129.966 55.3355 129.506 55.1171 129.016 55.0867C128.526 55.0562 128.043 55.2161 127.668 55.5329C127.853 54.5198 127.575 53.6265 126.952 53.2343C126.695 53.0833 126.399 53.014 126.102 53.0355C124.694 53.12 123.67 55.0509 123.379 55.5901C122.186 57.7688 119.667 61.4536 115.935 66.6199C115.935 66.6199 121.303 59.3402 118.446 57.3358C117.594 56.7394 116.575 57.5754 116.014 58.1691C114.977 59.2585 114.576 60.7646 113.806 62.0173C112.79 63.5886 111.431 64.9097 109.832 65.8818C107.313 67.4832 104.524 68.3329 102.226 70.2856C101.179 71.1653 100.246 72.1716 99.448 73.2813C98.5138 74.594 98.1843 76.1436 97.3782 77.4699L84.9022 97.8818L78.8645 84.8449Z" fill="white"/>
<path d="M82.3586 135.28C74.2701 135.28 69.929 127.254 69.8773 127.153L55.7156 97.8601L79.1069 84.0715L84.9677 96.738L96.9071 77.1922C97.2386 76.6163 97.5246 76.0153 97.7622 75.3947C98.0816 74.5445 98.4964 73.7332 98.9986 72.9763C99.822 71.8265 100.785 70.7836 101.866 69.8717C103.304 68.6461 104.933 67.84 106.496 67.0611C107.534 66.5705 108.545 66.0251 109.525 65.4271C111.059 64.5026 112.363 63.2406 113.337 61.7369C113.606 61.2808 113.849 60.8098 114.065 60.3261C114.476 59.4519 114.901 58.5505 115.614 57.7988C117.153 56.1648 118.242 56.5379 118.754 56.8974C119.032 57.0936 119.267 57.345 119.443 57.6361C119.619 57.9271 119.733 58.2514 119.778 58.5886C119.856 59.186 119.823 59.7926 119.68 60.3779C121.211 58.142 122.262 56.4916 122.897 55.3341L122.913 55.2987C123.278 54.6315 124.386 52.5971 126.067 52.4991C126.475 52.465 126.884 52.5603 127.235 52.7714C127.535 52.9778 127.784 53.2513 127.96 53.5705C128.136 53.8896 128.236 54.2454 128.251 54.6097C128.682 54.5013 129.135 54.5094 129.562 54.6334C129.989 54.7573 130.376 54.9926 130.683 55.3151C131.704 56.3527 131.394 57.5973 131.146 58.5968C131.058 58.9527 130.946 59.3021 130.811 59.6426C131.211 60.1604 131.496 60.7587 131.644 61.3966C131.792 62.0345 131.8 62.6968 131.669 63.3382C130.579 69.8281 126.611 75.7052 120.23 80.3159C117.416 82.3546 114.349 84.0198 111.107 85.2698L99.0694 121.812C98.23 124.397 96.877 126.786 95.0916 128.836C93.3062 130.885 91.1253 132.552 88.6797 133.738C86.7142 134.718 84.5543 135.244 82.3586 135.28ZM57.129 98.2904L70.8495 126.663C71.9952 128.64 73.5194 130.371 75.335 131.758C79.1995 134.642 83.5324 134.977 88.214 132.752C90.526 131.63 92.5875 130.052 94.2751 128.114C95.9626 126.176 97.2413 123.917 98.0346 121.472L110.252 84.4174L110.51 84.3302C110.685 84.2703 128.052 78.1971 130.606 63.1367C130.697 62.7055 130.706 62.261 130.631 61.8267C130.513 61.1841 130.22 60.5865 129.784 60.1001L129.55 59.8278L129.691 59.5064C129.86 59.1247 129.996 58.7293 130.097 58.3244C130.35 57.2977 130.478 56.6414 129.915 56.0667C129.68 55.8069 129.355 55.6473 129.006 55.621C128.657 55.5946 128.312 55.7035 128.041 55.9251L126.848 57.0145L127.14 55.4295C127.281 54.6533 127.093 53.9534 126.671 53.6946C126.511 53.6007 126.325 53.5597 126.14 53.5775C125.427 53.6184 124.664 54.3728 123.88 55.8135L123.861 55.8461C122.73 57.9105 120.459 61.2929 116.507 66.7697L116.385 66.9413L115.505 66.2986L115.682 66.0535C116.772 64.5011 119.048 60.7782 118.719 58.7547C118.697 58.561 118.634 58.3742 118.535 58.2062C118.436 58.0382 118.303 57.8929 118.144 57.7797C117.599 57.3985 116.758 58.1855 116.42 58.5423C115.827 59.1632 115.459 59.9503 115.059 60.7837C114.823 61.3029 114.561 61.8093 114.271 62.3006C113.215 63.9436 111.798 65.3247 110.129 66.3394C109.112 66.9592 108.062 67.5238 106.984 68.0306C105.399 68.8177 103.901 69.5585 102.564 70.6969C101.559 71.5522 100.666 72.5292 99.9028 73.6055C99.4486 74.2963 99.074 75.0363 98.7862 75.8114C98.5254 76.484 98.214 77.1358 97.8548 77.7614L84.8478 99.0421L78.6357 85.6211L57.129 98.2904Z" fill="#1C2444"/>
<path d="M36.7198 39.0752C36.6445 39.0792 36.5691 39.0792 36.4938 39.0752C36.054 39.0305 35.6373 38.8564 35.2964 38.5749C34.9555 38.2934 34.7057 37.9172 34.5786 37.4938C34.4515 37.0704 34.4527 36.6189 34.5821 36.1962C34.7115 35.7735 34.9634 35.3986 35.3058 35.119C35.6482 34.8394 36.0658 34.6675 36.5058 34.6252C36.9458 34.5828 37.3885 34.6718 37.778 34.881C38.1674 35.0902 38.4862 35.4101 38.6938 35.8003C38.9015 36.1906 38.9889 36.6336 38.9448 37.0735C38.8889 37.6244 38.6308 38.1351 38.2204 38.5068C37.8099 38.8785 37.2763 39.0849 36.7225 39.0861L36.7198 39.0752ZM36.7198 35.6928C36.4979 35.6928 36.2808 35.7572 36.0949 35.8782C35.9089 35.9992 35.762 36.1716 35.672 36.3744C35.5821 36.5772 35.5529 36.8018 35.588 37.0209C35.6231 37.2399 35.7211 37.4441 35.87 37.6086C36.0188 37.7731 36.2123 37.8909 36.4268 37.9477C36.6413 38.0045 36.8676 37.9978 37.0784 37.9284C37.2891 37.8591 37.4753 37.7301 37.6142 37.5571C37.7531 37.3841 37.8388 37.1745 37.8609 36.9537C37.8906 36.6512 37.7992 36.3492 37.6068 36.1139C37.4144 35.8786 37.1366 35.7292 36.8342 35.6982L36.7198 35.6928Z" fill="#1C2444"/>
<path d="M18.8271 52.2483L29.993 51.976C30.0656 51.9732 30.1367 51.9967 30.1934 52.042C30.2501 52.0874 30.2886 52.1516 30.3018 52.223C30.315 52.2944 30.3021 52.3682 30.2654 52.4308C30.2287 52.4935 30.1707 52.5409 30.102 52.5642L18.7808 56.6494L18.8271 52.2483Z" fill="#1C2444"/>
<path d="M35.0476 37.6591C34.9121 37.6598 34.7812 37.61 34.6805 37.5193C34.5798 37.4287 34.5164 37.3037 34.5029 37.1689C34.4414 36.5645 34.5401 35.9546 34.7892 35.4005C35.0383 34.8464 35.4289 34.3677 35.9218 34.0125C36.395 33.6896 36.9386 33.4848 37.5072 33.4152C38.0758 33.3455 38.6528 33.4131 39.1899 33.6121C39.2594 33.636 39.3234 33.6737 39.378 33.723C39.4325 33.7722 39.4766 33.832 39.5074 33.8987C39.5383 33.9655 39.5553 34.0378 39.5575 34.1112C39.5596 34.1847 39.5469 34.2579 39.5201 34.3263C39.4932 34.3947 39.4528 34.457 39.4012 34.5094C39.3496 34.5618 39.288 34.6032 39.22 34.6312C39.152 34.6591 39.079 34.673 39.0055 34.6719C38.932 34.6709 38.8595 34.655 38.7923 34.6253C38.4246 34.4934 38.0311 34.4494 37.6434 34.4967C37.2556 34.544 36.8843 34.6813 36.5591 34.8976C36.2219 35.1406 35.9547 35.4682 35.7845 35.8473C35.6143 36.2265 35.547 36.6438 35.5895 37.0573C35.5967 37.1284 35.5898 37.2003 35.5691 37.2688C35.5485 37.3373 35.5146 37.401 35.4693 37.4564C35.4241 37.5118 35.3683 37.5577 35.3053 37.5916C35.2423 37.6254 35.1732 37.6465 35.102 37.6537L35.0476 37.6591Z" fill="#1C2444"/>
<path d="M-19.8019 83.2516L2.64168 96.4819L-11.2967 125.306C-11.2967 125.306 -17.5905 137.251 -29.3856 131.652C-31.7667 130.502 -33.8897 128.881 -35.6264 126.887C-37.363 124.892 -38.6772 122.567 -39.4894 120.05L-51.6194 83.2516C-51.6194 83.2516 -69.4359 77.203 -72.0749 61.636C-72.177 61.1426 -72.1853 60.6345 -72.0994 60.1381C-71.9662 59.3964 -71.6296 58.7062 -71.1272 58.1446C-71.3082 57.7337 -71.454 57.3083 -71.5629 56.8727C-71.808 55.8869 -72.0422 54.9201 -71.2388 54.103C-70.9059 53.743 -70.447 53.5251 -69.9575 53.4947C-69.4681 53.4643 -68.9857 53.6236 -68.6107 53.9396C-68.7959 52.9265 -68.5154 52.0333 -67.8945 51.6411C-67.6375 51.4913 -67.3415 51.4221 -67.0448 51.4423C-65.6368 51.5267 -64.6128 53.4576 -64.3214 53.9968C-63.1258 56.1756 -60.6067 59.863 -56.8783 65.0266C-56.8783 65.0266 -62.2462 57.747 -59.3893 55.7425C-58.5369 55.1461 -57.5183 55.9849 -56.9546 56.5759C-55.917 57.6653 -55.5193 59.174 -54.7486 60.4241C-53.731 61.9941 -52.3729 63.3149 -50.7752 64.2886C-48.256 65.8899 -45.4673 66.7396 -43.166 68.6923C-42.1203 69.5728 -41.1873 70.579 -40.3881 71.6881C-39.4567 73.0007 -39.1244 74.5476 -38.3183 75.8739L-25.8451 96.2859L-19.8019 83.2516Z" fill="white"/>
<path d="M-23.2959 133.686C-25.4927 133.653 -27.6539 133.126 -29.6197 132.145C-32.0649 130.959 -34.2454 129.291 -36.0303 127.242C-37.8152 125.193 -39.1677 122.804 -40.0067 120.219L-52.0632 83.6765C-55.3063 82.4277 -58.3731 80.7625 -61.1867 78.7227C-67.5649 74.1147 -71.5192 68.2348 -72.6249 61.7259C-72.754 61.0876 -72.744 60.4291 -72.5955 59.7951C-72.447 59.1611 -72.1635 58.5665 -71.7644 58.052C-71.8972 57.7106 -72.0091 57.3613 -72.0993 57.0062C-72.3472 56.004 -72.644 54.7621 -71.6364 53.7218C-71.3295 53.3998 -70.9428 53.1648 -70.5155 53.0409C-70.0883 52.917 -69.6359 52.9086 -69.2044 53.0164C-69.1892 52.6522 -69.0895 52.2966 -68.9132 51.9775C-68.7369 51.6585 -68.4888 51.3848 -68.1885 51.1781C-67.8372 50.9674 -67.4285 50.8721 -67.0202 50.9058C-65.3398 51.0066 -64.2314 53.0382 -63.8665 53.7055L-63.8474 53.7409C-63.202 54.9201 -62.1671 56.5514 -60.6311 58.7901C-60.7752 58.2031 -60.8084 57.5945 -60.7291 56.9953C-60.6852 56.6578 -60.5715 56.3331 -60.3952 56.0419C-60.2189 55.7507 -59.9839 55.4994 -59.7051 55.3041C-59.1931 54.9446 -58.1038 54.5851 -56.565 56.2055C-55.8542 56.9572 -55.4267 57.8614 -55.0154 58.7329C-54.8011 59.217 -54.5583 59.6881 -54.2883 60.1436C-53.3185 61.6469 -52.0193 62.9097 -50.4891 63.8365C-49.5084 64.433 -48.4976 64.9784 -47.4607 65.4706C-45.8866 66.2495 -44.258 67.0583 -42.8309 68.2811C-41.7497 69.1937 -40.7856 70.2365 -39.9604 71.3858C-39.4591 72.1427 -39.0452 72.954 -38.7267 73.8042C-38.4865 74.425 -38.1997 75.0267 -37.8689 75.6044L-25.9267 95.1475L-20.066 82.481L3.32807 96.2723L-10.8336 125.546C-10.8663 125.658 -15.2101 133.686 -23.2959 133.686ZM-69.7899 54.0268C-70.1886 54.0345 -70.5682 54.1989 -70.8466 54.4844C-71.413 55.059 -71.285 55.7181 -71.029 56.7421C-70.93 57.1472 -70.7951 57.5428 -70.626 57.924L-70.4844 58.2454L-70.7158 58.5177C-71.1544 59.0025 -71.4478 59.6008 -71.5628 60.2444C-71.6386 60.6721 -71.6312 61.1104 -71.541 61.5352C-68.981 76.6284 -51.6193 82.6879 -51.4423 82.7478L-51.1863 82.835L-38.9718 119.89C-38.1792 122.335 -36.9007 124.595 -35.2132 126.534C-33.5256 128.472 -31.4637 130.05 -29.1512 131.173C-24.4588 133.4 -20.115 133.06 -16.245 130.154C-14.4358 128.768 -12.918 127.038 -11.7787 125.064L1.93096 96.708L-19.5594 84.0387L-25.7715 97.4433L-38.7785 76.1599C-39.1393 75.5352 -39.4507 74.8832 -39.7099 74.21C-39.9988 73.4354 -40.3733 72.6955 -40.8265 72.004C-41.6 70.9354 -42.5029 69.9667 -43.5145 69.1199C-44.8517 67.9815 -46.3468 67.2408 -47.9318 66.4537C-49.0044 65.9464 -50.049 65.3818 -51.061 64.7625C-52.731 63.7478 -54.1484 62.3667 -55.2061 60.7237C-55.4959 60.2332 -55.7577 59.7268 -55.9904 59.2067C-56.3826 58.3734 -56.7529 57.589 -57.3521 56.9654C-57.6898 56.6086 -58.5341 55.8216 -59.0787 56.2028C-59.2371 56.3164 -59.37 56.4618 -59.469 56.6297C-59.5679 56.7975 -59.6307 56.9842 -59.6534 57.1778C-59.9829 59.2013 -57.7252 62.897 -56.6222 64.4684L-56.4398 64.7216L-57.3194 65.3644L-57.442 65.1928C-61.4018 59.7024 -63.6731 56.3308 -64.7952 54.2719L-64.8142 54.2365C-65.6013 52.7958 -66.3611 52.0442 -67.0774 52.0006C-67.2622 51.9842 -67.4476 52.0251 -67.6084 52.1177C-68.0306 52.3901 -68.2185 53.0764 -68.0741 53.8553L-67.7855 55.4376L-68.9756 54.3482C-69.1966 54.142 -69.4876 54.0271 -69.7899 54.0268Z" fill="#1C2444"/>
<path d="M9.5185 35.3251C10.1277 35.3251 10.6215 34.8313 10.6215 34.2221C10.6215 33.613 10.1277 33.1191 9.5185 33.1191C8.90934 33.1191 8.41553 33.613 8.41553 34.2221C8.41553 34.8313 8.90934 35.3251 9.5185 35.3251Z" fill="#1C2444"/>
<path d="M21.3488 35.1456C21.958 35.1456 22.4518 34.6518 22.4518 34.0426C22.4518 33.4335 21.958 32.9396 21.3488 32.9396C20.7397 32.9396 20.2458 33.4335 20.2458 34.0426C20.2458 34.6518 20.7397 35.1456 21.3488 35.1456Z" fill="#1C2444"/>
<path d="M13.8812 39.0999C13.819 39.0995 13.7572 39.0885 13.6987 39.0672C12.8817 38.7949 12.0647 38.3918 12.0647 37.6783C12.074 37.5449 12.1096 37.4146 12.1695 37.2949C12.2293 37.1753 12.3121 37.0687 12.4133 36.9811C12.4837 36.9095 12.5501 36.8341 12.6121 36.7551C12.8884 36.3973 13.0541 35.9666 13.0887 35.5159L13.5462 30.7364C13.56 30.5919 13.6305 30.4588 13.7423 30.3664C13.8542 30.2739 13.9982 30.2297 14.1427 30.2434C14.2871 30.2571 14.4202 30.3277 14.5126 30.4395C14.6051 30.5514 14.6493 30.6954 14.6356 30.8398L14.1726 35.6221C14.118 36.2759 13.8759 36.9 13.4754 37.4196C13.391 37.5285 13.3175 37.6102 13.2548 37.6783C13.512 37.8307 13.7862 37.9522 14.0718 38.0405C14.1937 38.0827 14.2966 38.1667 14.3623 38.2777C14.428 38.3886 14.4523 38.5192 14.4307 38.6464C14.4091 38.7735 14.3432 38.8888 14.2446 38.9719C14.1459 39.0549 14.021 39.1003 13.8921 39.0999H13.8812Z" fill="#1C2444"/>
<path d="M15.5262 43.8605C14.6917 43.8372 13.8781 43.5939 13.1678 43.1551C13.1048 43.1176 13.05 43.0677 13.0067 43.0085C12.9634 42.9492 12.9326 42.8819 12.916 42.8104C12.8994 42.739 12.8974 42.6649 12.9101 42.5927C12.9228 42.5205 12.95 42.4516 12.99 42.3901C13.03 42.3286 13.082 42.2758 13.1429 42.235C13.2038 42.1941 13.2723 42.1659 13.3444 42.1522C13.4164 42.1384 13.4905 42.1393 13.5622 42.1549C13.6338 42.1705 13.7016 42.2004 13.7615 42.2428C13.7805 42.2564 14.9026 42.9617 16.0056 42.7194C16.3073 42.643 16.5902 42.5057 16.837 42.3161C17.0838 42.1264 17.2893 41.8883 17.4408 41.6164C17.5181 41.4943 17.6407 41.4079 17.7817 41.3763C17.9226 41.3446 18.0704 41.3703 18.1924 41.4475C18.3145 41.5248 18.4009 41.6474 18.4325 41.7884C18.4642 41.9294 18.4386 42.0771 18.3613 42.1992C18.0819 42.7056 17.6711 43.1272 17.1722 43.4196C16.6732 43.712 16.1045 43.8643 15.5262 43.8605Z" fill="#1C2444"/>
<path d="M-2.63058 127.856L-7.39654 104.707C-8.20766 100.77 -8.00145 96.6919 -6.7974 92.8572L3.85112 58.9481H13.3476L15.5263 63.7849C20.2024 74.1692 35.0232 73.9459 39.3861 63.4281L41.2435 58.9481H49.6206L60.1139 93.4237C61.468 97.8675 61.5351 102.604 60.3073 107.084L54.6208 127.856H-2.63058Z" fill="#FD5814"/>
<path d="M27.8686 25.2024H22.607C20.9804 25.2024 19.4204 24.5562 18.2702 23.406C17.12 22.2559 16.4739 20.6959 16.4739 19.0693V15.1258H27.8686V25.2024Z" fill="#1C2444"/>
<path d="M49.6206 58.9509L60.8056 96.3078L81.8412 83.8972C79.5168 79.6352 76.9348 75.5189 74.1095 71.5711C69.1229 64.6101 66.5384 61.0942 62.1592 59.3158C57.5049 57.4094 52.8288 58.0712 49.6206 58.9509Z" fill="#1C2444"/>
<path d="M42.4851 31.1448H33.0349C32.1236 31.1444 31.2214 30.9646 30.3796 30.6155C29.5378 30.2664 28.773 29.755 28.1289 29.1104C27.4848 28.4657 26.974 27.7006 26.6256 26.8585C26.2772 26.0165 26.098 25.1141 26.0984 24.2028V21.0654H42.4878L42.4851 31.1448Z" fill="#1C2444"/>
<path d="M39.1463 15.1258H22.8604V25.2051H39.1463V15.1258Z" fill="#1C2444"/>
<path d="M46.9623 69.1063C54.1188 69.1063 59.9203 63.3049 59.9203 56.1484C59.9203 48.9919 54.1188 43.1904 46.9623 43.1904C39.8059 43.1904 34.0044 48.9919 34.0044 56.1484C34.0044 63.3049 39.8059 69.1063 46.9623 69.1063Z" fill="#1C2444"/>
<path d="M37.4905 78.1399C42.7895 78.1399 47.0851 73.8443 47.0851 68.5454C47.0851 63.2464 42.7895 58.9508 37.4905 58.9508C32.1916 58.9508 27.896 63.2464 27.896 68.5454C27.896 73.8443 32.1916 78.1399 37.4905 78.1399Z" fill="#1C2444"/>
<path d="M54.7161 78.6846C60.0151 78.6846 64.3107 74.389 64.3107 69.09C64.3107 63.7911 60.0151 59.4955 54.7161 59.4955C49.4172 59.4955 45.1216 63.7911 45.1216 69.09C45.1216 74.389 49.4172 78.6846 54.7161 78.6846Z" fill="#1C2444"/>
<path d="M-23.0535 82.8267L-6.62045 92.2933L3.85105 58.9507C3.85105 58.9507 -10.6674 54.9037 -23.0535 82.8267Z" fill="#1C2444"/>
</g>
<defs>
<clipPath id="clip0_6_7036">
<rect width="64" height="64" rx="32" fill="white"/>
</clipPath>
</defs>
</svg>
