<svg width="22" height="22" viewBox="0 0 22 22" fill="none" xmlns="http://www.w3.org/2000/svg">
<path d="M19.5357 7.27891C19.4083 7.15055 19.2567 7.04876 19.0896 6.97943C18.9225 6.9101 18.7434 6.8746 18.5625 6.875H15.8125V6.1875C15.8125 4.91115 15.3055 3.68707 14.403 2.78455C13.5004 1.88203 12.2764 1.375 11 1.375C9.72365 1.375 8.49957 1.88203 7.59705 2.78455C6.69453 3.68707 6.1875 4.91115 6.1875 6.1875V6.875H3.4375C3.07283 6.875 2.72309 7.01987 2.46523 7.27773C2.20737 7.53559 2.0625 7.88533 2.0625 8.25V17.5312C2.0625 19.207 3.48047 20.625 5.15625 20.625H16.8438C17.6543 20.6253 18.4329 20.3083 19.0128 19.742C19.3047 19.4636 19.5371 19.1289 19.696 18.7581C19.8549 18.3874 19.9371 17.9883 19.9375 17.585V8.25C19.9381 8.06961 19.9028 7.8909 19.8339 7.72422C19.7649 7.55753 19.6636 7.40617 19.5357 7.27891V7.27891ZM7.5625 6.1875C7.5625 5.27582 7.92466 4.40148 8.56932 3.75682C9.21398 3.11216 10.0883 2.75 11 2.75C11.9117 2.75 12.786 3.11216 13.4307 3.75682C14.0753 4.40148 14.4375 5.27582 14.4375 6.1875V6.875H7.5625V6.1875Z" fill="#1C2444"/>
</svg>
