<svg width="22" height="22" viewBox="0 0 22 22" fill="none" xmlns="http://www.w3.org/2000/svg">
<path d="M17.1875 20.625C17.0194 20.6255 16.8569 20.5643 16.7307 20.4531L11 15.3575L5.26926 20.4531C5.17009 20.5413 5.04752 20.5989 4.91636 20.6189C4.78519 20.6389 4.65103 20.6206 4.53005 20.5661C4.40908 20.5116 4.30646 20.4232 4.23459 20.3117C4.16272 20.2001 4.12466 20.0702 4.125 19.9375V4.125C4.1258 3.3959 4.41579 2.69689 4.93134 2.18134C5.44689 1.66578 6.1459 1.3758 6.875 1.375H15.125C15.8541 1.3758 16.5531 1.66578 17.0687 2.18134C17.5842 2.69689 17.8742 3.3959 17.875 4.125V19.9375C17.875 20.1198 17.8026 20.2947 17.6736 20.4236C17.5447 20.5526 17.3698 20.625 17.1875 20.625Z" fill="#1C2444"/>
</svg>
