<svg width="22" height="22" viewBox="0 0 22 22" fill="none" xmlns="http://www.w3.org/2000/svg">
<g clip-path="url(#clip0_6_7499)">
<path d="M22 11C22 10.2893 21.3868 8.99078 20.0402 7.82031C19.2715 7.15917 18.3955 6.63427 17.45 6.26828C17.4186 6.25652 17.3839 6.25687 17.3527 6.26925C17.3215 6.28164 17.296 6.30518 17.2812 6.33531C17.2747 6.34777 17.2683 6.3598 17.261 6.37227L16.8489 7.05547C16.154 8.25543 15.7883 9.61762 15.7888 11.0043C15.7893 12.3909 16.1561 13.7528 16.8519 14.9523L16.8618 14.969L17.2373 15.6565C17.2573 15.693 17.2897 15.7211 17.3288 15.7355C17.3678 15.7498 17.4107 15.7496 17.4496 15.7347C20.6091 14.4985 22 12.0953 22 11ZM17.9644 10.994C17.822 11.0126 17.6773 10.9862 17.5507 10.9184C17.4241 10.8506 17.3219 10.7449 17.2585 10.6161C17.195 10.4873 17.1735 10.3418 17.1969 10.2002C17.2203 10.0585 17.2875 9.92769 17.3891 9.82615C17.4906 9.72461 17.6214 9.65742 17.7631 9.634C17.9047 9.61057 18.0502 9.6321 18.179 9.69556C18.3078 9.75902 18.4135 9.86122 18.4813 9.98782C18.5491 10.1144 18.5755 10.2591 18.5569 10.4014C18.5372 10.5517 18.4685 10.6913 18.3613 10.7984C18.2542 10.9056 18.1146 10.9743 17.9644 10.994Z" fill="#1C2444"/>
<path d="M14.4139 11C14.4133 9.3699 14.8444 7.76874 15.6634 6.35935L15.6686 6.35032L15.8671 6.02075C15.8815 5.99727 15.89 5.97069 15.8919 5.94324C15.8938 5.9158 15.8892 5.88828 15.8783 5.86302C15.8674 5.83776 15.8505 5.81548 15.8292 5.79807C15.8079 5.78065 15.7828 5.7686 15.7558 5.76294C15.1996 5.6466 14.6359 5.56921 14.0689 5.53134C14.002 5.52702 13.9379 5.50311 13.8845 5.46259C13.0561 4.83267 11.4138 3.73095 9.73977 3.44779C9.62537 3.42883 9.50804 3.43912 9.39869 3.47769C9.28934 3.51626 9.19151 3.58187 9.11433 3.6684C9.03714 3.75494 8.9831 3.85959 8.95722 3.97262C8.93135 4.08566 8.93448 4.2034 8.96633 4.3149L9.42266 5.91204C9.43453 5.95343 9.43043 5.99777 9.41117 6.03628C9.39192 6.07479 9.35891 6.10467 9.31868 6.12001C7.73528 6.70825 6.37145 7.78505 5.37673 8.60575C5.31585 8.65558 5.23972 8.68302 5.16105 8.68349C5.08238 8.68396 5.00593 8.65743 4.94446 8.60833C4.80925 8.50091 4.67046 8.39506 4.52809 8.29079C2.82481 7.04685 0.823757 6.88314 0.739538 6.87712C0.632609 6.86904 0.525273 6.88609 0.426108 6.9269C0.326943 6.96771 0.238699 7.03115 0.168429 7.11215C0.0981585 7.19315 0.0478103 7.28946 0.0214081 7.3934C-0.00499409 7.49733 -0.00671812 7.606 0.0163738 7.71072C0.0344206 7.79365 0.411257 9.45911 1.37848 10.7877C1.42202 10.8473 1.44549 10.9191 1.44549 10.9929C1.44549 11.0667 1.42202 11.1385 1.37848 11.1981C0.411257 12.5262 0.0344206 14.1921 0.0163738 14.2751C-0.00671812 14.3798 -0.00499409 14.4884 0.0214081 14.5924C0.0478103 14.6963 0.0981585 14.7926 0.168429 14.8736C0.238699 14.9546 0.326943 15.0181 0.426108 15.0589C0.525273 15.0997 0.632609 15.1167 0.739538 15.1086C0.825475 15.1026 2.82481 14.9368 4.52594 13.6958C4.66488 13.5939 4.80051 13.4904 4.93286 13.3856C4.99438 13.3366 5.07085 13.3101 5.14952 13.3107C5.22819 13.3112 5.30429 13.3387 5.36512 13.3886C6.36415 14.2132 7.73055 15.2913 9.31825 15.8808C9.35839 15.8961 9.39132 15.9259 9.41057 15.9644C9.42982 16.0028 9.43398 16.047 9.42223 16.0883L8.96419 17.6859C8.93233 17.7974 8.9292 17.9151 8.95507 18.0282C8.98095 18.1412 9.03499 18.2459 9.11218 18.3324C9.18937 18.4189 9.28719 18.4845 9.39654 18.5231C9.50589 18.5617 9.62323 18.572 9.73762 18.553C10.475 18.4284 11.9668 18.0004 13.8648 16.5408C13.919 16.4994 13.9841 16.4748 14.0521 16.4699C14.6184 16.4328 15.1815 16.3567 15.7374 16.2422C15.7636 16.2367 15.7882 16.2251 15.8091 16.2084C15.8301 16.1917 15.8469 16.1703 15.8581 16.146C15.8693 16.1216 15.8747 16.095 15.8738 16.0682C15.8729 16.0414 15.8658 16.0152 15.8529 15.9917L15.6591 15.6354C14.8425 14.2271 14.4129 12.6279 14.4139 11Z" fill="#1C2444"/>
</g>
<defs>
<clipPath id="clip0_6_7499">
<rect width="22" height="22" fill="white"/>
</clipPath>
</defs>
</svg>
