<svg width="22" height="22" viewBox="0 0 22 22" fill="none" xmlns="http://www.w3.org/2000/svg">
<path d="M6.93302 10.3985C6.99491 10.3327 7.06915 10.2798 7.1515 10.2428C7.23385 10.2057 7.32269 10.1852 7.41294 10.1825C7.5032 10.1798 7.59311 10.1949 7.67753 10.2269C7.76196 10.259 7.83924 10.3073 7.90497 10.3692C11.0688 13.3496 14.2433 15.1628 17.979 16.0871C18.483 14.7121 18.5277 13.1987 18.0924 11.7223C17.5149 9.76339 16.17 8.05667 14.2042 6.78694C12.4493 5.65342 10.6954 5.35823 8.99853 5.07292C6.85782 4.71284 4.83571 4.37253 2.90599 2.32936C2.69114 2.10335 2.39853 2.01268 2.1188 2.08616C1.79911 2.1721 1.5847 2.42475 1.482 2.84241C1.24138 3.81995 1.39607 6.55964 2.07282 9.45186C3.1595 14.0985 4.89372 16.4498 6.15743 17.6043C7.79025 19.0949 9.92236 19.9203 12.0411 19.9203C12.4405 19.921 12.8394 19.8917 13.2344 19.8327C15.0266 19.5611 16.5185 18.6609 17.3594 17.3512C13.5141 16.3509 10.2292 14.4487 6.96095 11.3717C6.8951 11.3097 6.84213 11.2353 6.80507 11.1528C6.76802 11.0703 6.74761 10.9813 6.74502 10.8909C6.74242 10.8005 6.75769 10.7104 6.78995 10.6259C6.82222 10.5414 6.87083 10.4641 6.93302 10.3985ZM20.0849 16.5082C19.3617 16.3969 18.6613 16.2573 17.9794 16.0884C17.8392 16.4711 17.6648 16.8404 17.4582 17.1918C17.4268 17.2455 17.3938 17.2988 17.3598 17.3512C18.1892 17.5659 19.0291 17.738 19.8761 17.8669C19.9662 17.8827 20.0586 17.8804 20.1478 17.8601C20.237 17.8397 20.3213 17.8018 20.3957 17.7485C20.47 17.6952 20.533 17.6275 20.5809 17.5496C20.6288 17.4716 20.6606 17.3848 20.6746 17.2944C20.6885 17.204 20.6842 17.1116 20.662 17.0229C20.6398 16.9341 20.6001 16.8507 20.5452 16.7774C20.4903 16.7042 20.4214 16.6427 20.3424 16.5964C20.2634 16.5502 20.176 16.5202 20.0853 16.5082H20.0849Z" fill="#1C2444"/>
</svg>
