<svg width="22" height="22" viewBox="0 0 22 22" fill="none" xmlns="http://www.w3.org/2000/svg">
<path d="M11 9.625C11.7594 9.625 12.375 9.00939 12.375 8.25C12.375 7.49061 11.7594 6.875 11 6.875C10.2406 6.875 9.625 7.49061 9.625 8.25C9.625 9.00939 10.2406 9.625 11 9.625Z" fill="#1C2444"/>
<path d="M11 1.375C7.2093 1.375 4.125 4.32481 4.125 7.94922C4.125 9.67527 4.91176 11.9707 6.46336 14.7718C7.70945 17.0208 9.15105 19.0545 9.90086 20.0664C10.0276 20.2393 10.1932 20.3799 10.3844 20.4768C10.5756 20.5738 10.7869 20.6243 11.0013 20.6243C11.2156 20.6243 11.427 20.5738 11.6182 20.4768C11.8094 20.3799 11.975 20.2393 12.1017 20.0664C12.8502 19.0545 14.2931 17.0208 15.5392 14.7718C17.0882 11.9715 17.875 9.67613 17.875 7.94922C17.875 4.32481 14.7907 1.375 11 1.375ZM11 11C10.4561 11 9.92442 10.8387 9.47218 10.5365C9.01995 10.2344 8.66747 9.80488 8.45933 9.30238C8.25119 8.79988 8.19673 8.24695 8.30284 7.7135C8.40895 7.18005 8.67086 6.69005 9.05546 6.30546C9.44005 5.92086 9.93005 5.65895 10.4635 5.55284C10.9969 5.44673 11.5499 5.50119 12.0524 5.70933C12.5549 5.91747 12.9844 6.26995 13.2865 6.72218C13.5887 7.17442 13.75 7.7061 13.75 8.25C13.7492 8.9791 13.4592 9.67811 12.9437 10.1937C12.4281 10.7092 11.7291 10.9992 11 11Z" fill="#1C2444"/>
</svg>
