<svg width="22" height="22" viewBox="0 0 22 22" fill="none" xmlns="http://www.w3.org/2000/svg">
<path d="M19.0266 15.547C18.6485 14.4684 17.7672 13.9219 16.9164 13.3934C16.1761 12.9332 15.477 12.4983 15.0198 11.7176C13.7595 9.55496 13.0673 8.25 11.0027 8.25C8.93801 8.25 8.24363 9.55539 6.98035 11.7171C6.52273 12.4996 5.8202 12.9353 5.07898 13.3964C4.2282 13.9253 3.34863 14.4706 2.96922 15.547C2.82155 15.9351 2.74724 16.3473 2.75008 16.7625C2.75008 18.5131 4.14441 19.9375 5.68914 19.9375C7.23387 19.9375 9.26887 19.1585 11.007 19.1585C12.745 19.1585 14.7517 19.9375 16.3157 19.9375C17.8798 19.9375 19.2501 18.5131 19.2501 16.7625C19.2513 16.347 19.1755 15.9349 19.0266 15.547V15.547Z" fill="#1C2444"/>
<path d="M3.09375 12.375C4.42269 12.375 5.5 10.9899 5.5 9.28125C5.5 7.57262 4.42269 6.1875 3.09375 6.1875C1.76481 6.1875 0.6875 7.57262 0.6875 9.28125C0.6875 10.9899 1.76481 12.375 3.09375 12.375Z" fill="#1C2444"/>
<path d="M7.90625 8.25C9.23519 8.25 10.3125 6.86488 10.3125 5.15625C10.3125 3.44762 9.23519 2.0625 7.90625 2.0625C6.57731 2.0625 5.5 3.44762 5.5 5.15625C5.5 6.86488 6.57731 8.25 7.90625 8.25Z" fill="#1C2444"/>
<path d="M14.0938 8.25C15.4227 8.25 16.5 6.86488 16.5 5.15625C16.5 3.44762 15.4227 2.0625 14.0938 2.0625C12.7648 2.0625 11.6875 3.44762 11.6875 5.15625C11.6875 6.86488 12.7648 8.25 14.0938 8.25Z" fill="#1C2444"/>
<path d="M18.9062 12.375C20.2352 12.375 21.3125 10.9899 21.3125 9.28125C21.3125 7.57262 20.2352 6.1875 18.9062 6.1875C17.5773 6.1875 16.5 7.57262 16.5 9.28125C16.5 10.9899 17.5773 12.375 18.9062 12.375Z" fill="#1C2444"/>
</svg>
