<svg width="22" height="22" viewBox="0 0 22 22" fill="none" xmlns="http://www.w3.org/2000/svg">
<path d="M14.4375 11C13.554 11 12.6998 10.6055 12.0312 9.88969C11.3811 9.19145 10.9841 8.26031 10.914 7.26859C10.8392 6.2107 11.1619 5.23789 11.8224 4.52891C12.4828 3.81992 13.4062 3.4375 14.4375 3.4375C15.4614 3.4375 16.3874 3.8268 17.0457 4.53406C17.7104 5.2482 18.0339 6.2193 17.9592 7.26816C17.8874 8.26117 17.4908 9.19187 16.842 9.88926C16.1751 10.6055 15.3213 11 14.4375 11ZM20.102 18.5625H8.77331C8.59117 18.5635 8.41124 18.5226 8.24735 18.4432C8.08347 18.3637 7.94 18.2477 7.828 18.104C7.70919 17.9483 7.62715 17.7677 7.58801 17.5758C7.54886 17.3839 7.55364 17.1857 7.60198 16.9959C7.96378 15.5431 8.86011 14.3382 10.1939 13.512C11.3776 12.7789 12.8846 12.375 14.4375 12.375C16.0209 12.375 17.4882 12.7617 18.6789 13.4943C20.0157 14.3163 20.9133 15.528 21.2734 16.9984C21.3211 17.1884 21.3254 17.3866 21.2858 17.5785C21.2462 17.7703 21.1638 17.9507 21.0448 18.1062C20.9329 18.2491 20.7897 18.3646 20.6263 18.4437C20.4629 18.5228 20.2836 18.5634 20.102 18.5625V18.5625ZM6.31636 11.1719C4.80429 11.1719 3.47483 9.76594 3.35151 8.03816C3.2905 7.15301 3.56636 6.33445 4.12495 5.73418C4.67753 5.13992 5.45698 4.8125 6.31636 4.8125C7.17573 4.8125 7.94917 5.14164 8.50476 5.73934C9.06765 6.34434 9.34265 7.16117 9.27819 8.03902C9.15487 9.76637 7.82585 11.1719 6.31636 11.1719ZM9.13769 12.5232C8.38187 12.1537 7.40089 11.9689 6.31679 11.9689C5.05093 11.9689 3.82159 12.2989 2.8548 12.8979C1.75866 13.5781 1.02132 14.5686 0.723545 15.7644C0.679968 15.9364 0.675847 16.116 0.711488 16.2898C0.74713 16.4636 0.821613 16.6272 0.929365 16.7681C1.03161 16.8994 1.16259 17.0054 1.31225 17.0781C1.4619 17.1508 1.62623 17.1883 1.79261 17.1875H6.56214C6.64264 17.1875 6.72059 17.1592 6.78238 17.1076C6.84418 17.056 6.88591 16.9844 6.9003 16.9052C6.90503 16.8781 6.91105 16.8511 6.91792 16.8244C7.2823 15.3609 8.13608 14.1243 9.39765 13.2228C9.44405 13.1893 9.48137 13.1448 9.50623 13.0933C9.53109 13.0418 9.5427 12.9849 9.54001 12.9278C9.53732 12.8706 9.52042 12.8151 9.49083 12.7661C9.46125 12.7172 9.41991 12.6764 9.37058 12.6474C9.30312 12.6079 9.22577 12.5662 9.13769 12.5232V12.5232Z" fill="#1C2444"/>
</svg>
